<svg xmlns="http://www.w3.org/2000/svg" xmlns:xlink="http://www.w3.org/1999/xlink" width="40" height="40" viewBox="0 0 40 40" style="enable-background:new 0 0 40 40;" xml:space="preserve">
  <rect x="0" y="0" fill="#E4002B" width="40" height="40" />
  <path fill="#FFFFFF" d="M35,25.4c-0.2-0.5-0.4-1-0.7-1.4c-0.3-0.5-0.6-1-1-1.4c-0.4-0.4-0.8-0.8-1.3-1.1c-0.5-0.3-1-0.4-1.6-0.4v11.8 c0,0.3,0.1,0.6,0.2,0.9c0.1,0.3,0.3,0.5,0.5,0.7c0.2,0.2,0.5,0.3,0.7,0.4c0.3,0.1,0.6,0.1,0.9,0.1v0.3h-4.7V21.3 c-0.5,0-1.1,0.1-1.6,0.3c-0.4,0.2-0.8,0.5-1.1,0.9c-0.3,0.4-0.6,0.8-0.7,1.3c-0.2,0.5-0.3,1.1-0.4,1.7H24c-0.1-0.6-0.2-1.1-0.4-1.7 c-0.2-0.5-0.4-0.9-0.7-1.3c-0.3-0.4-0.7-0.7-1.2-0.9c-0.5-0.2-1.1-0.3-1.7-0.3h-1v6.4h0.9c0.1,0,0.3-0.1,0.4-0.1 c0.4-0.1,0.7-0.3,0.9-0.6c0.3-0.3,0.4-0.6,0.5-1c0.1-0.5,0.2-1,0.2-1.5h0.2l0.8,7h-0.2c-0.1-0.9-0.6-1.8-1.2-2.5 c-0.3-0.2-0.6-0.4-1-0.6h-1.6V35h1.7c0.6,0,1.1-0.1,1.7-0.3c0.5-0.2,1-0.5,1.4-0.9c0.4-0.4,0.8-0.8,1.1-1.3 c0.3-0.5,0.5-1,0.7-1.5h0.2l-0.6,4.6H14.2v-0.3c0.3,0,0.6,0,0.9-0.1c0.3-0.1,0.5-0.2,0.7-0.4c0.2-0.2,0.4-0.4,0.5-0.7 c0.1-0.2,0.2-0.5,0.1-0.8v-9.6 l-4.2,10.3h-0.4l-4.2-9.5v8.4c0,0.4,0.1,0.8,0.3,1.1c0.1,0.3,0.3,0.5,0.5,0.7c0.2,0.2,0.5,0.3,0.7,0.4 c0.3,0.1,0.6,0.1,0.9,0.1v0.3 H4.6v-0.3c0.3,0,0.6,0,0.9-0.1c0.3-0.1,0.5-0.2,0.7-0.4c0.2-0.2,0.4-0.4,0.5-0.7c0.1-0.3,0.2-0.6,0.2-0.9V22.7 c-0.4-0.9-1.3-1.5-2.3-1.5v-0.3H7c0.5,0,1,0.1,1.5,0.3c0.5,0.2,0.8,0.6,1,1.1l3.6,8.2l3.4-8.4c0.2-0.4,0.5-0.7,0.9-0.9 c0.4-0.2,0.9-0.3,1.3-0.3h16l0.5,4.6L35,25.4L35,25.4z M22.8,19.3V19c0.9,0.2,1.8-0.5,1.9-1.4c0-0.2,0-0.4,0-0.6v-4.7 h-5.2v4.7C19.4,18,20,18.8,20.9,19c0.2,0,0.4,0,0.6,0v0.3h-6.6V19c0.3,0,0.6,0,0.9-0.1c0.3-0.1,0.5-0.2,0.7-0.4 c0.2-0.2,0.4-0.4,0.5-0.7c0.1-0.3,0.2-0.6,0.2-0.9V9.1c0-0.7-0.1-1.3-0.3-1.9c-0.2-0.5-0.5-0.9-0.9-1.3 c-0.4-0.3-0.9-0.6-1.4-0.7C14,5.1,13.3,5,12.7,5.1 v14.3H8V19c0.3,0,0.6,0,0.9-0.1c0.3-0.1,0.5-0.2,0.7-0.4c0.2-0.2,0.4-0.4,0.5-0.7c0.1-0.3,0.2-0.6,0.2-0.9V5.1 c-0.5,0-1.1,0.2-1.5,0.4c-0.5,0.3-1,0.7-1.4,1.1C7,7,6.6,7.4,6.3,7.9C6,8.4,5.8,8.9,5.6,9.4H5.4L6,4.8h15.5v0.3 c-0.9-0.1-1.8,0.5-1.9,1.5c0,0.2,0,0.3,0,0.5v4.7h5.2V7c0.1-0.9-0.5-1.8-1.4-1.9c-0.2,0-0.3,0-0.5,0V4.8h10.5l0.6,4.6h-0.2 c-0.2-0.5-0.4-1.1-0.7-1.5c-0.3-0.5-0.6-0.9-1.1-1.3c-0.4-0.4-0.9-0.7-1.4-0.9c-0.5-0.2-1.1-0.4-1.7-0.3h-1.7v6.5 h1 c0.6-0.1,1.1-0.3,1.5-0.7c0.6-0.7,0.9-1.6,0.8-2.5h0.2l0.9,7h-0.2c-0.1-0.5-0.3-1-0.6-1.4c-0.4-0.8-1.2-1.3-2-1.6 h-1.7v6.4h2.3 c0.6,0,1.1-0.1,1.7-0.3c0.5-0.2,1-0.5,1.4-0.9c0.4-0.4,0.8-0.8,1.1-1.3c0.3-0.5,0.5-1,0.7-1.5h0.2l-0.6,4.6L22.8,19.3L22.8,19.3z" />
</svg>